<?xml version="1.0" encoding="UTF-8"?>
<svg id="Capa_2" data-name="Capa 2" xmlns="http://www.w3.org/2000/svg" viewBox="0 0 49.65 49.6">
  <defs>
    <style>
      .cls-1 {
        fill: #d27773;
      }
    </style>
  </defs>
  <g id="Capa_1-2" data-name="Capa 1">
    <path class="cls-1" d="M49.64,34.14c-.01,4.07-2.6,7.39-6.47,8.46-3.92,1.07-7.84-.5-9.98-4.01-2.02-3.3-1.57-7.56,1.11-10.51,2.64-2.9,6.87-3.66,10.49-1.88.45.22.88.49,1.47.81v-14.04c-2.02.44-3.96.86-5.89,1.26-7.17,1.5-14.32,3-21.5,4.46-.93.18-1.17.55-1.16,1.44.03,6.82.04,13.64,0,20.46-.04,5.23-4.04,9.11-9.17,9-3.46-.06-6.69-2.35-7.94-5.58-1.3-3.34-.43-7.28,2.15-9.68,2.64-2.48,6.45-3.13,9.66-1.65.59.27,1.16.61,1.89,1.01.03-.54.06-.98.06-1.42.01-7.68.01-15.35.01-23.04,0-2.02.26-2.33,2.22-2.73C26.81,4.36,37.03,2.23,47.24.09c1.61-.34,2.4.26,2.4,1.91.01,10.71.03,21.43,0,32.14Z"/>
  </g>
</svg>